<svg xmlns="http://www.w3.org/2000/svg" viewBox="0 0 512 512">
  <rect width="512" height="512" rx="96" fill="#1f3a32"/>
  <circle cx="256" cy="258" r="146" fill="#f6f4ee"/>
  <path d="M156 260c0-62 45-106 100-106s100 44 100 106-45 106-100 106-100-44-100-106z" fill="#ffffff"/>
  <path d="M188 262c24-38 53-57 87-57 28 0 51 12 69 36-20 44-49 66-88 66-29 0-52-15-68-45z" fill="#1f6b54"/>
  <path d="M134 392h244c18 0 33 15 33 33v14H101v-14c0-18 15-33 33-33z" fill="#d7a33f"/>
  <path d="M157 117h34v164h-34zM321 117h34v164h-34z" fill="#d7a33f"/>
</svg>
